<svg width="24" height="28" viewBox="0 0 24 28" fill="none" xmlns="http://www.w3.org/2000/svg">
<path d="M17.1429 24.5V26.6875C17.1429 27.4124 16.5672 28 15.8571 28H1.28571C0.575625 28 0 27.4124 0 26.6875V6.5625C0 5.83762 0.575625 5.25 1.28571 5.25H5.14286V21.4375C5.14286 23.1262 6.48863 24.5 8.14286 24.5H17.1429ZM17.1429 5.6875V0H8.14286C7.43277 0 6.85714 0.587617 6.85714 1.3125V21.4375C6.85714 22.1624 7.43277 22.75 8.14286 22.75H22.7143C23.4244 22.75 24 22.1624 24 21.4375V7H18.4286C17.7214 7 17.1429 6.40938 17.1429 5.6875ZM23.6234 3.9906L20.0908 0.384398C19.8497 0.138273 19.5227 1.81998e-06 19.1817 0L18.8571 0V5.25H24V4.91865C24 4.57057 23.8645 4.23674 23.6234 3.9906Z" fill="#6ac5ff"/>
</svg>
